<mxfile host="app.diagrams.net" modified="2023-02-02T11:23:23.373Z" agent="5.0 (Windows NT 10.0; Win64; x64) AppleWebKit/537.36 (KHTML, like Gecko) Chrome/109.0.0.0 Safari/537.36" etag="B1uTy1z7llDpKeBwiNXM" version="20.8.15" type="github">
  <diagram name="Page-1" id="d19-jBFcHIrSLnqHWP5x">
    <mxGraphModel dx="646" dy="341" grid="1" gridSize="10" guides="1" tooltips="1" connect="1" arrows="1" fold="1" page="1" pageScale="1" pageWidth="850" pageHeight="1100" math="0" shadow="0">
      <root>
        <mxCell id="0" />
        <mxCell id="1" parent="0" />
        <mxCell id="FavbgJtfy0NIzKYWdvmE-1" style="edgeStyle=orthogonalEdgeStyle;rounded=0;orthogonalLoop=1;jettySize=auto;html=1;entryX=0;entryY=0.5;entryDx=0;entryDy=0;" edge="1" parent="1" source="FavbgJtfy0NIzKYWdvmE-2" target="FavbgJtfy0NIzKYWdvmE-6">
          <mxGeometry relative="1" as="geometry" />
        </mxCell>
        <mxCell id="FavbgJtfy0NIzKYWdvmE-2" value="" style="ellipse;whiteSpace=wrap;html=1;aspect=fixed;" vertex="1" parent="1">
          <mxGeometry x="39" y="80" width="60" height="60" as="geometry" />
        </mxCell>
        <mxCell id="FavbgJtfy0NIzKYWdvmE-3" value="&lt;font style=&quot;font-size: 8px;&quot;&gt;Requirements&lt;/font&gt;" style="text;html=1;strokeColor=none;fillColor=none;align=center;verticalAlign=middle;whiteSpace=wrap;rounded=0;" vertex="1" parent="1">
          <mxGeometry x="39" y="95" width="60" height="30" as="geometry" />
        </mxCell>
        <mxCell id="FavbgJtfy0NIzKYWdvmE-4" style="edgeStyle=orthogonalEdgeStyle;rounded=0;orthogonalLoop=1;jettySize=auto;html=1;entryX=0;entryY=0.5;entryDx=0;entryDy=0;" edge="1" parent="1" source="FavbgJtfy0NIzKYWdvmE-5" target="FavbgJtfy0NIzKYWdvmE-9">
          <mxGeometry relative="1" as="geometry" />
        </mxCell>
        <mxCell id="FavbgJtfy0NIzKYWdvmE-5" value="" style="ellipse;whiteSpace=wrap;html=1;aspect=fixed;" vertex="1" parent="1">
          <mxGeometry x="220" y="80" width="60" height="60" as="geometry" />
        </mxCell>
        <mxCell id="FavbgJtfy0NIzKYWdvmE-6" value="&lt;font style=&quot;font-size: 8px;&quot;&gt;Dev&lt;/font&gt;" style="text;html=1;strokeColor=none;fillColor=none;align=center;verticalAlign=middle;whiteSpace=wrap;rounded=0;" vertex="1" parent="1">
          <mxGeometry x="220" y="95" width="60" height="30" as="geometry" />
        </mxCell>
        <mxCell id="FavbgJtfy0NIzKYWdvmE-7" style="edgeStyle=orthogonalEdgeStyle;rounded=0;orthogonalLoop=1;jettySize=auto;html=1;entryX=0;entryY=0.5;entryDx=0;entryDy=0;" edge="1" parent="1" source="FavbgJtfy0NIzKYWdvmE-8" target="FavbgJtfy0NIzKYWdvmE-12">
          <mxGeometry relative="1" as="geometry" />
        </mxCell>
        <mxCell id="FavbgJtfy0NIzKYWdvmE-8" value="" style="ellipse;whiteSpace=wrap;html=1;aspect=fixed;" vertex="1" parent="1">
          <mxGeometry x="365" y="80" width="60" height="60" as="geometry" />
        </mxCell>
        <mxCell id="FavbgJtfy0NIzKYWdvmE-9" value="&lt;font style=&quot;font-size: 8px;&quot;&gt;Test&lt;/font&gt;" style="text;html=1;strokeColor=none;fillColor=none;align=center;verticalAlign=middle;whiteSpace=wrap;rounded=0;" vertex="1" parent="1">
          <mxGeometry x="365" y="95" width="60" height="30" as="geometry" />
        </mxCell>
        <mxCell id="FavbgJtfy0NIzKYWdvmE-10" style="edgeStyle=orthogonalEdgeStyle;rounded=0;orthogonalLoop=1;jettySize=auto;html=1;" edge="1" parent="1" source="FavbgJtfy0NIzKYWdvmE-11">
          <mxGeometry relative="1" as="geometry">
            <mxPoint x="650" y="110" as="targetPoint" />
          </mxGeometry>
        </mxCell>
        <mxCell id="FavbgJtfy0NIzKYWdvmE-11" value="" style="ellipse;whiteSpace=wrap;html=1;aspect=fixed;" vertex="1" parent="1">
          <mxGeometry x="520" y="80" width="60" height="60" as="geometry" />
        </mxCell>
        <mxCell id="FavbgJtfy0NIzKYWdvmE-12" value="&lt;font style=&quot;font-size: 8px;&quot;&gt;VAL&lt;/font&gt;" style="text;html=1;strokeColor=none;fillColor=none;align=center;verticalAlign=middle;whiteSpace=wrap;rounded=0;" vertex="1" parent="1">
          <mxGeometry x="520" y="95" width="60" height="30" as="geometry" />
        </mxCell>
        <mxCell id="FavbgJtfy0NIzKYWdvmE-13" value="" style="ellipse;whiteSpace=wrap;html=1;aspect=fixed;" vertex="1" parent="1">
          <mxGeometry x="660" y="80" width="60" height="60" as="geometry" />
        </mxCell>
        <mxCell id="FavbgJtfy0NIzKYWdvmE-14" value="&lt;font style=&quot;font-size: 8px;&quot;&gt;PROD&lt;/font&gt;" style="text;html=1;strokeColor=none;fillColor=none;align=center;verticalAlign=middle;whiteSpace=wrap;rounded=0;" vertex="1" parent="1">
          <mxGeometry x="660" y="95" width="60" height="30" as="geometry" />
        </mxCell>
        <mxCell id="FavbgJtfy0NIzKYWdvmE-15" value="" style="ellipse;whiteSpace=wrap;html=1;aspect=fixed;fillColor=#FF8000;" vertex="1" parent="1">
          <mxGeometry x="220" y="180" width="20" height="20" as="geometry" />
        </mxCell>
        <mxCell id="FavbgJtfy0NIzKYWdvmE-16" value="" style="ellipse;whiteSpace=wrap;html=1;aspect=fixed;fillColor=#FF8000;" vertex="1" parent="1">
          <mxGeometry x="220" y="220" width="20" height="20" as="geometry" />
        </mxCell>
        <mxCell id="FavbgJtfy0NIzKYWdvmE-17" value="" style="ellipse;whiteSpace=wrap;html=1;aspect=fixed;fillColor=#FF8000;" vertex="1" parent="1">
          <mxGeometry x="220" y="260" width="20" height="20" as="geometry" />
        </mxCell>
        <mxCell id="FavbgJtfy0NIzKYWdvmE-18" value="" style="ellipse;whiteSpace=wrap;html=1;aspect=fixed;fillColor=#FF8000;" vertex="1" parent="1">
          <mxGeometry x="220" y="300" width="20" height="20" as="geometry" />
        </mxCell>
        <mxCell id="FavbgJtfy0NIzKYWdvmE-19" value="" style="ellipse;whiteSpace=wrap;html=1;aspect=fixed;fillColor=#FF8000;" vertex="1" parent="1">
          <mxGeometry x="220" y="340" width="20" height="20" as="geometry" />
        </mxCell>
        <mxCell id="FavbgJtfy0NIzKYWdvmE-20" value="" style="ellipse;whiteSpace=wrap;html=1;aspect=fixed;fillColor=#FF8000;" vertex="1" parent="1">
          <mxGeometry x="220" y="380" width="20" height="20" as="geometry" />
        </mxCell>
        <mxCell id="FavbgJtfy0NIzKYWdvmE-21" value="" style="ellipse;whiteSpace=wrap;html=1;aspect=fixed;fillColor=#FF8000;" vertex="1" parent="1">
          <mxGeometry x="220" y="420" width="20" height="20" as="geometry" />
        </mxCell>
        <mxCell id="FavbgJtfy0NIzKYWdvmE-22" value="" style="ellipse;whiteSpace=wrap;html=1;aspect=fixed;fillColor=#FF8000;" vertex="1" parent="1">
          <mxGeometry x="220" y="460" width="20" height="20" as="geometry" />
        </mxCell>
        <mxCell id="FavbgJtfy0NIzKYWdvmE-23" value="" style="ellipse;whiteSpace=wrap;html=1;aspect=fixed;fillColor=#FFFF00;" vertex="1" parent="1">
          <mxGeometry x="220" y="500" width="20" height="20" as="geometry" />
        </mxCell>
        <mxCell id="FavbgJtfy0NIzKYWdvmE-24" value="Impact/Risk Assessment" style="text;html=1;strokeColor=none;fillColor=none;align=center;verticalAlign=middle;whiteSpace=wrap;rounded=0;" vertex="1" parent="1">
          <mxGeometry x="252" y="177" width="60" height="30" as="geometry" />
        </mxCell>
        <mxCell id="FavbgJtfy0NIzKYWdvmE-25" value="TRM Drafterd" style="text;html=1;strokeColor=none;fillColor=none;align=center;verticalAlign=middle;whiteSpace=wrap;rounded=0;" vertex="1" parent="1">
          <mxGeometry x="243" y="220" width="84" height="30" as="geometry" />
        </mxCell>
        <mxCell id="FavbgJtfy0NIzKYWdvmE-26" value="URS Drafted" style="text;html=1;strokeColor=none;fillColor=none;align=center;verticalAlign=middle;whiteSpace=wrap;rounded=0;" vertex="1" parent="1">
          <mxGeometry x="248" y="256" width="74" height="30" as="geometry" />
        </mxCell>
        <mxCell id="FavbgJtfy0NIzKYWdvmE-27" value="CIL Drafted" style="text;html=1;strokeColor=none;fillColor=none;align=center;verticalAlign=middle;whiteSpace=wrap;rounded=0;" vertex="1" parent="1">
          <mxGeometry x="243" y="295" width="74" height="30" as="geometry" />
        </mxCell>
        <mxCell id="FavbgJtfy0NIzKYWdvmE-28" value="FS Drafted" style="text;html=1;strokeColor=none;fillColor=none;align=center;verticalAlign=middle;whiteSpace=wrap;rounded=0;" vertex="1" parent="1">
          <mxGeometry x="244" y="335" width="74" height="30" as="geometry" />
        </mxCell>
        <mxCell id="FavbgJtfy0NIzKYWdvmE-29" value="Runbook Drafted" style="text;html=1;strokeColor=none;fillColor=none;align=center;verticalAlign=middle;whiteSpace=wrap;rounded=0;" vertex="1" parent="1">
          <mxGeometry x="239" y="375" width="74" height="30" as="geometry" />
        </mxCell>
        <mxCell id="FavbgJtfy0NIzKYWdvmE-30" value="Test Protocol Drafted" style="text;html=1;strokeColor=none;fillColor=none;align=center;verticalAlign=middle;whiteSpace=wrap;rounded=0;" vertex="1" parent="1">
          <mxGeometry x="244" y="420" width="74" height="30" as="geometry" />
        </mxCell>
        <mxCell id="FavbgJtfy0NIzKYWdvmE-31" value="Test Cases Created - LW" style="text;html=1;strokeColor=none;fillColor=none;align=center;verticalAlign=middle;whiteSpace=wrap;rounded=0;" vertex="1" parent="1">
          <mxGeometry x="244" y="455" width="74" height="30" as="geometry" />
        </mxCell>
        <mxCell id="FavbgJtfy0NIzKYWdvmE-32" value="Test Cases Created - TIMS" style="text;html=1;strokeColor=none;fillColor=none;align=center;verticalAlign=middle;whiteSpace=wrap;rounded=0;" vertex="1" parent="1">
          <mxGeometry x="246" y="495" width="84" height="30" as="geometry" />
        </mxCell>
        <mxCell id="FavbgJtfy0NIzKYWdvmE-33" value="Impact/Risk Assessment" style="text;html=1;strokeColor=none;fillColor=none;align=center;verticalAlign=middle;whiteSpace=wrap;rounded=0;" vertex="1" parent="1">
          <mxGeometry x="252" y="177" width="60" height="30" as="geometry" />
        </mxCell>
        <mxCell id="FavbgJtfy0NIzKYWdvmE-34" value="" style="ellipse;whiteSpace=wrap;html=1;aspect=fixed;fillColor=#FF8000;" vertex="1" parent="1">
          <mxGeometry x="220" y="180" width="20" height="20" as="geometry" />
        </mxCell>
        <mxCell id="FavbgJtfy0NIzKYWdvmE-35" value="" style="ellipse;whiteSpace=wrap;html=1;aspect=fixed;fillColor=#FF8000;" vertex="1" parent="1">
          <mxGeometry x="220" y="220" width="20" height="20" as="geometry" />
        </mxCell>
        <mxCell id="FavbgJtfy0NIzKYWdvmE-36" value="TRM Drafterd" style="text;html=1;strokeColor=none;fillColor=none;align=center;verticalAlign=middle;whiteSpace=wrap;rounded=0;" vertex="1" parent="1">
          <mxGeometry x="243" y="220" width="84" height="30" as="geometry" />
        </mxCell>
        <mxCell id="FavbgJtfy0NIzKYWdvmE-37" value="" style="ellipse;whiteSpace=wrap;html=1;aspect=fixed;fillColor=#FFFF00;" vertex="1" parent="1">
          <mxGeometry x="220" y="260" width="20" height="20" as="geometry" />
        </mxCell>
        <mxCell id="FavbgJtfy0NIzKYWdvmE-38" value="" style="ellipse;whiteSpace=wrap;html=1;aspect=fixed;fillColor=#FF8000;" vertex="1" parent="1">
          <mxGeometry x="220" y="300" width="20" height="20" as="geometry" />
        </mxCell>
        <mxCell id="FavbgJtfy0NIzKYWdvmE-39" value="CIL Drafted" style="text;html=1;strokeColor=none;fillColor=none;align=center;verticalAlign=middle;whiteSpace=wrap;rounded=0;" vertex="1" parent="1">
          <mxGeometry x="243" y="295" width="74" height="30" as="geometry" />
        </mxCell>
        <mxCell id="FavbgJtfy0NIzKYWdvmE-40" value="TC Executed (ADO/LW)" style="text;html=1;strokeColor=none;fillColor=none;align=center;verticalAlign=middle;whiteSpace=wrap;rounded=0;" vertex="1" parent="1">
          <mxGeometry x="529" y="175" width="74" height="30" as="geometry" />
        </mxCell>
        <mxCell id="FavbgJtfy0NIzKYWdvmE-41" value="PV executed and approved" style="text;html=1;strokeColor=none;fillColor=none;align=center;verticalAlign=middle;whiteSpace=wrap;rounded=0;" vertex="1" parent="1">
          <mxGeometry x="517" y="367" width="86" height="30" as="geometry" />
        </mxCell>
        <mxCell id="FavbgJtfy0NIzKYWdvmE-42" value="TRM approved" style="text;html=1;strokeColor=none;fillColor=none;align=center;verticalAlign=middle;whiteSpace=wrap;rounded=0;" vertex="1" parent="1">
          <mxGeometry x="519" y="412" width="91" height="30" as="geometry" />
        </mxCell>
        <mxCell id="FavbgJtfy0NIzKYWdvmE-43" value="VerificationReport Ready for PROD approved" style="text;html=1;strokeColor=none;fillColor=none;align=center;verticalAlign=middle;whiteSpace=wrap;rounded=0;" vertex="1" parent="1">
          <mxGeometry x="519" y="451" width="141" height="30" as="geometry" />
        </mxCell>
        <mxCell id="FavbgJtfy0NIzKYWdvmE-44" value="Protocol approved" style="text;html=1;strokeColor=none;fillColor=none;align=center;verticalAlign=middle;whiteSpace=wrap;rounded=0;" vertex="1" parent="1">
          <mxGeometry x="521" y="494" width="109" height="30" as="geometry" />
        </mxCell>
        <mxCell id="FavbgJtfy0NIzKYWdvmE-50" value="" style="rounded=1;whiteSpace=wrap;html=1;fillColor=#00FF00;arcSize=0;" vertex="1" parent="1">
          <mxGeometry x="501" y="180" width="20" height="16" as="geometry" />
        </mxCell>
        <mxCell id="FavbgJtfy0NIzKYWdvmE-54" value="" style="rounded=1;whiteSpace=wrap;html=1;fillColor=#FF8000;arcSize=0;" vertex="1" parent="1">
          <mxGeometry x="494" y="374" width="20" height="16" as="geometry" />
        </mxCell>
        <mxCell id="FavbgJtfy0NIzKYWdvmE-55" value="" style="rounded=1;whiteSpace=wrap;html=1;fillColor=#FF8000;arcSize=0;" vertex="1" parent="1">
          <mxGeometry x="494" y="419" width="20" height="16" as="geometry" />
        </mxCell>
        <mxCell id="FavbgJtfy0NIzKYWdvmE-56" value="" style="rounded=1;whiteSpace=wrap;html=1;fillColor=#00FF00;arcSize=0;" vertex="1" parent="1">
          <mxGeometry x="494" y="458" width="20" height="16" as="geometry" />
        </mxCell>
        <mxCell id="FavbgJtfy0NIzKYWdvmE-57" value="" style="rounded=1;whiteSpace=wrap;html=1;fillColor=#FF8000;arcSize=0;" vertex="1" parent="1">
          <mxGeometry x="494" y="502" width="20" height="16" as="geometry" />
        </mxCell>
        <mxCell id="FavbgJtfy0NIzKYWdvmE-58" value="URS approved" style="text;html=1;strokeColor=none;fillColor=none;align=center;verticalAlign=middle;whiteSpace=wrap;rounded=0;" vertex="1" parent="1">
          <mxGeometry x="374" y="338" width="86" height="30" as="geometry" />
        </mxCell>
        <mxCell id="FavbgJtfy0NIzKYWdvmE-59" value="FS approved" style="text;html=1;strokeColor=none;fillColor=none;align=center;verticalAlign=middle;whiteSpace=wrap;rounded=0;" vertex="1" parent="1">
          <mxGeometry x="375" y="375" width="74" height="30" as="geometry" />
        </mxCell>
        <mxCell id="FavbgJtfy0NIzKYWdvmE-60" value="Test Protocol approved" style="text;html=1;strokeColor=none;fillColor=none;align=center;verticalAlign=middle;whiteSpace=wrap;rounded=0;" vertex="1" parent="1">
          <mxGeometry x="374" y="423" width="74" height="30" as="geometry" />
        </mxCell>
        <mxCell id="FavbgJtfy0NIzKYWdvmE-61" value="TC Dry Run" style="text;html=1;strokeColor=none;fillColor=none;align=center;verticalAlign=middle;whiteSpace=wrap;rounded=0;" vertex="1" parent="1">
          <mxGeometry x="378" y="174" width="68" height="30" as="geometry" />
        </mxCell>
        <mxCell id="FavbgJtfy0NIzKYWdvmE-62" value="Create Bugs" style="text;html=1;strokeColor=none;fillColor=none;align=center;verticalAlign=middle;whiteSpace=wrap;rounded=0;" vertex="1" parent="1">
          <mxGeometry x="373" y="215" width="84" height="30" as="geometry" />
        </mxCell>
        <mxCell id="FavbgJtfy0NIzKYWdvmE-63" value="CR novoGlow" style="text;html=1;strokeColor=none;fillColor=none;align=center;verticalAlign=middle;whiteSpace=wrap;rounded=0;" vertex="1" parent="1">
          <mxGeometry x="373" y="255" width="84" height="30" as="geometry" />
        </mxCell>
        <mxCell id="FavbgJtfy0NIzKYWdvmE-64" value="Risk Assessment approved" style="text;html=1;strokeColor=none;fillColor=none;align=center;verticalAlign=middle;whiteSpace=wrap;rounded=0;" vertex="1" parent="1">
          <mxGeometry x="377" y="298" width="97" height="30" as="geometry" />
        </mxCell>
        <mxCell id="FavbgJtfy0NIzKYWdvmE-65" value="" style="rounded=1;whiteSpace=wrap;html=1;fillColor=#00FF00;" vertex="1" parent="1">
          <mxGeometry x="354" y="181" width="20" height="16" as="geometry" />
        </mxCell>
        <mxCell id="FavbgJtfy0NIzKYWdvmE-66" value="" style="rounded=1;whiteSpace=wrap;html=1;fillColor=#00FF00;" vertex="1" parent="1">
          <mxGeometry x="354" y="222" width="20" height="16" as="geometry" />
        </mxCell>
        <mxCell id="FavbgJtfy0NIzKYWdvmE-67" value="" style="rounded=1;whiteSpace=wrap;html=1;fillColor=#00FF00;" vertex="1" parent="1">
          <mxGeometry x="354" y="262" width="20" height="16" as="geometry" />
        </mxCell>
        <mxCell id="FavbgJtfy0NIzKYWdvmE-68" value="" style="rounded=1;whiteSpace=wrap;html=1;fillColor=#FF8000;" vertex="1" parent="1">
          <mxGeometry x="354" y="302" width="20" height="16" as="geometry" />
        </mxCell>
        <mxCell id="FavbgJtfy0NIzKYWdvmE-69" value="" style="rounded=1;whiteSpace=wrap;html=1;fillColor=#FF8000;" vertex="1" parent="1">
          <mxGeometry x="353" y="342" width="20" height="16" as="geometry" />
        </mxCell>
        <mxCell id="FavbgJtfy0NIzKYWdvmE-70" value="" style="rounded=1;whiteSpace=wrap;html=1;fillColor=#FF8000;" vertex="1" parent="1">
          <mxGeometry x="353" y="380" width="20" height="16" as="geometry" />
        </mxCell>
        <mxCell id="FavbgJtfy0NIzKYWdvmE-71" value="" style="rounded=1;whiteSpace=wrap;html=1;fillColor=#FF8000;" vertex="1" parent="1">
          <mxGeometry x="353" y="422" width="20" height="16" as="geometry" />
        </mxCell>
        <mxCell id="FavbgJtfy0NIzKYWdvmE-72" value="" style="rhombus;whiteSpace=wrap;html=1;fillColor=#FF8000;" vertex="1" parent="1">
          <mxGeometry x="650" y="177" width="20" height="20" as="geometry" />
        </mxCell>
        <mxCell id="FavbgJtfy0NIzKYWdvmE-73" value="pIV approved" style="text;html=1;strokeColor=none;fillColor=none;align=center;verticalAlign=middle;whiteSpace=wrap;rounded=0;" vertex="1" parent="1">
          <mxGeometry x="678" y="172" width="80" height="30" as="geometry" />
        </mxCell>
        <mxCell id="FavbgJtfy0NIzKYWdvmE-74" value="" style="rhombus;whiteSpace=wrap;html=1;fillColor=#FFFF00;" vertex="1" parent="1">
          <mxGeometry x="651" y="221" width="20" height="20" as="geometry" />
        </mxCell>
        <mxCell id="FavbgJtfy0NIzKYWdvmE-75" value="Runbook approved" style="text;html=1;strokeColor=none;fillColor=none;align=center;verticalAlign=middle;whiteSpace=wrap;rounded=0;" vertex="1" parent="1">
          <mxGeometry x="671" y="217" width="121" height="30" as="geometry" />
        </mxCell>
        <mxCell id="FavbgJtfy0NIzKYWdvmE-76" value="" style="rhombus;whiteSpace=wrap;html=1;fillColor=#FF8000;" vertex="1" parent="1">
          <mxGeometry x="651" y="268" width="20" height="20" as="geometry" />
        </mxCell>
        <mxCell id="FavbgJtfy0NIzKYWdvmE-77" value="pCIL approved" style="text;html=1;strokeColor=none;fillColor=none;align=center;verticalAlign=middle;whiteSpace=wrap;rounded=0;" vertex="1" parent="1">
          <mxGeometry x="672.5" y="262" width="91" height="30" as="geometry" />
        </mxCell>
        <mxCell id="FavbgJtfy0NIzKYWdvmE-78" value="" style="rhombus;whiteSpace=wrap;html=1;fillColor=#FF8000;" vertex="1" parent="1">
          <mxGeometry x="652" y="307" width="20" height="20" as="geometry" />
        </mxCell>
        <mxCell id="FavbgJtfy0NIzKYWdvmE-79" value="pPV approved" style="text;html=1;strokeColor=none;fillColor=none;align=center;verticalAlign=middle;whiteSpace=wrap;rounded=0;" vertex="1" parent="1">
          <mxGeometry x="673.5" y="301" width="91" height="30" as="geometry" />
        </mxCell>
        <mxCell id="FavbgJtfy0NIzKYWdvmE-80" value="" style="rhombus;whiteSpace=wrap;html=1;fillColor=#00FF00;" vertex="1" parent="1">
          <mxGeometry x="654" y="348" width="20" height="20" as="geometry" />
        </mxCell>
        <mxCell id="FavbgJtfy0NIzKYWdvmE-81" value="Verification Report Ready for Use approved" style="text;html=1;strokeColor=none;fillColor=none;align=center;verticalAlign=middle;whiteSpace=wrap;rounded=0;" vertex="1" parent="1">
          <mxGeometry x="678" y="344" width="141" height="30" as="geometry" />
        </mxCell>
        <mxCell id="FavbgJtfy0NIzKYWdvmE-82" value="" style="rounded=1;whiteSpace=wrap;html=1;fillColor=#FFFF00;arcSize=0;" vertex="1" parent="1">
          <mxGeometry x="292" y="570" width="20" height="16" as="geometry" />
        </mxCell>
        <mxCell id="FavbgJtfy0NIzKYWdvmE-83" value="" style="rounded=1;whiteSpace=wrap;html=1;fillColor=#00FF00;arcSize=0;" vertex="1" parent="1">
          <mxGeometry x="150" y="570" width="20" height="16" as="geometry" />
        </mxCell>
        <mxCell id="FavbgJtfy0NIzKYWdvmE-84" value="" style="rounded=1;whiteSpace=wrap;html=1;fillColor=#FF8000;arcSize=0;" vertex="1" parent="1">
          <mxGeometry x="50" y="570" width="20" height="16" as="geometry" />
        </mxCell>
        <mxCell id="FavbgJtfy0NIzKYWdvmE-85" value="Manual" style="text;html=1;strokeColor=none;fillColor=none;align=center;verticalAlign=middle;whiteSpace=wrap;rounded=0;" vertex="1" parent="1">
          <mxGeometry x="60" y="563" width="80" height="30" as="geometry" />
        </mxCell>
        <mxCell id="FavbgJtfy0NIzKYWdvmE-86" value="Can be automated" style="text;html=1;strokeColor=none;fillColor=none;align=center;verticalAlign=middle;whiteSpace=wrap;rounded=0;" vertex="1" parent="1">
          <mxGeometry x="168" y="563" width="120" height="30" as="geometry" />
        </mxCell>
        <mxCell id="FavbgJtfy0NIzKYWdvmE-87" value="Clarifications needed" style="text;html=1;strokeColor=none;fillColor=none;align=center;verticalAlign=middle;whiteSpace=wrap;rounded=0;" vertex="1" parent="1">
          <mxGeometry x="317" y="563" width="120" height="30" as="geometry" />
        </mxCell>
        <mxCell id="FavbgJtfy0NIzKYWdvmE-89" value="Regression Test Suite" style="text;html=1;strokeColor=none;fillColor=none;align=center;verticalAlign=middle;whiteSpace=wrap;rounded=0;" vertex="1" parent="1">
          <mxGeometry x="530" y="217" width="74" height="30" as="geometry" />
        </mxCell>
        <mxCell id="FavbgJtfy0NIzKYWdvmE-90" value="" style="rounded=1;whiteSpace=wrap;html=1;fillColor=#00FF00;arcSize=0;" vertex="1" parent="1">
          <mxGeometry x="502" y="222" width="20" height="16" as="geometry" />
        </mxCell>
      </root>
    </mxGraphModel>
  </diagram>
</mxfile>
